<svg width="77" height="78" viewBox="0 0 77 78" fill="none" xmlns="http://www.w3.org/2000/svg">
<rect width="76.05" height="78" rx="15" fill="#DAE4D7"/>
<path d="M10.3179 29.2188C11.9191 30.924 11.7486 32.5013 11.7486 34.6736C11.7486 37.6259 11.6512 40.7228 10.8831 43.591C10.7219 44.1932 10.7353 45.0727 10.3886 45.6002C10.1613 45.9461 10 46.3329 10 46.763C10 47.9306 10.4719 48.6069 10.8654 49.6956C11.699 52.0012 12.3645 54.5924 14.2124 56.3816C14.8209 56.9707 15.4598 57.4331 16.3584 57.3819C16.6927 57.3628 17.165 56.8815 17.3121 56.6124C17.7148 55.8759 18.3687 55.3163 18.8134 54.6117C20.2752 52.2959 20.0144 49.6733 20.0144 47.0623C20.0144 43.484 21.5618 40.3689 20.4621 36.9242C18.9754 32.2677 15.7339 17.252 16.3584 22.0883C17.0852 27.7175 19.9243 33.1075 20.8092 38.7242C21.1678 40.9998 19.1269 43.5592 19.5376 45.8311C19.9639 48.1898 20.6593 50.5182 20.9329 52.9018C21.1614 54.8931 21.2861 56.7775 21.2861 58.7926C21.2861 59.6305 21.2861 60.4684 21.2861 61.3062C21.2861 61.7601 21.2986 61.8449 20.8092 61.8449" stroke="#333333" stroke-width="3" stroke-linecap="round"/>
<path d="M21.7168 24.75C21.8312 27.8502 24.0052 29.7689 26.5317 31.1851C27.013 31.4548 26.6879 33.4948 26.6553 33.921C26.4809 36.2004 26.3708 38.4617 27.0174 40.6839C28.2957 45.0775 29.7715 49.3913 31.1327 53.7566C31.6656 55.4657 31.9947 57.0372 31.9275 58.8266C31.8749 60.2254 31.2361 61.2773 30.6646 62.4945C30.0101 63.8884 28.7368 64.1531 27.3265 64.1531C25.5537 64.1531 25.8014 61.4432 25.4984 60.2373C25.0934 58.6254 25.6661 57.3111 25.4984 55.6875C25.3706 54.4496 24.9123 52.8323 24.9123 51.5625" stroke="#333333" stroke-width="3" stroke-linecap="round"/>
<path d="M20.6519 19.5938V20.2812" stroke="#333333" stroke-width="3" stroke-linecap="round"/>
<path d="M28.9162 25.2174C31.3157 22.0094 34.0765 19.0203 36.5992 15.8981C37.1419 15.2264 39.7066 11.9181 37.9769 11.1273C37.4545 10.8885 36.5478 11.0589 35.981 11.0589C35.2045 11.0589 34.3853 10.9894 33.6143 11.0931C32.5618 11.2346 31.6245 11.7673 30.5941 11.9737C30.0224 12.0883 29.4167 12.1789 28.8985 12.4525C27.8855 12.9875 26.5797 13.4933 26.0726 14.6156C25.5653 15.7382 25.7273 17.2614 25.737 18.4459C25.7491 19.9183 26.0181 21.4095 26.3728 22.8406C26.7559 24.3859 26.9849 25.874 28.3157 26.9103C29.9067 28.1493 31.84 28.7644 32.0777 31.0655C32.3964 34.151 31.6586 36.4932 31.6586 39.5312C31.6586 42.3751 32.3688 44.6875 33.5172 47.4384C34.8542 50.1875 36.7236 51.0623 37.8797 53.218C38.6087 54.5772 39.041 55.9625 38.8953 57.5015C38.748 59.0571 38.3 61.1264 37.341 62.4262C36.8987 63.0257 35.9761 64.6785 36.7052 65.3844C36.9495 65.6209 37.5183 65.6538 37.8356 65.6922C39.1663 65.8532 40.4255 66 41.7742 66C43.8214 66 45.6821 65.0708 47.3555 63.9908C48.4247 63.3007 49.3959 62.4928 50.4993 61.8448C51.1704 61.4507 51.0261 61.1316 50.8526 60.4597" stroke="#333333" stroke-width="3" stroke-linecap="round"/>
<path d="M43.2225 13.5205C42.6487 13.6872 42.1925 14.7966 41.942 15.239C41.2177 16.5176 40.4509 17.7518 39.6459 18.9838C38.2076 21.1848 36.1024 22.8241 34.3296 24.755C33.0873 26.108 35.8704 27.7942 36.7051 28.6024C38.5788 30.4164 39.6122 32.6185 39.5664 35.1686C39.5243 37.5101 38.1147 39.4559 37.7472 41.7434C37.4472 43.6105 37.7719 45.11 38.7597 46.7495C39.6096 48.1601 40.8967 48.9581 42.6653 49.1557C45.1424 49.4324 45.5373 50.1486 46.926 48.1245C49.7079 44.0698 50.3756 38.1922 50.3756 33.4758C50.3756 29.1389 49.8307 24.4468 48.7013 20.21C48.2421 18.4872 47.4188 17.8232 46.571 16.1557C45.8829 15.4648 45.4473 14.6786 44.6531 14.1019C44.2393 13.8015 43.8395 13.5405 44.3882 14.2045C45.6086 15.6814 46.7487 17.2735 47.8323 18.847C50.4478 22.6453 51.8613 27.1729 51.9564 31.7316C52.0952 38.3828 51.6473 51.6869 51.6473 51.6869" stroke="#333333" stroke-width="3" stroke-linecap="round"/>
<path d="M51.6475 15.5215C52.1126 16.4221 52.6168 17.3043 53.0781 18.2061C53.8034 19.6241 54.0603 21.1213 54.5176 22.6264C55.0603 24.4129 55.8271 26.1508 56.2396 27.97C56.7934 30.4125 57.1912 32.8397 57.3347 35.3399C57.589 39.7721 57.7685 44.3072 57.2905 48.729C57.1477 50.05 56.9369 51.2339 56.4957 52.4823C56.2197 53.2635 55.7983 54.2122 55.6568 55.0216C55.3995 56.4934 56.1096 57.456 55.6479 58.8861C55.4888 59.379 55.1702 61.0146 55.6568 59.3735C56.8283 55.422 57.2008 51.8491 57.8999 47.7885C58.2994 45.4674 57.8147 43.2565 57.8999 40.9059C57.9682 39.0192 57.4812 35.9027 57.2363 34.0309C56.9713 32.0056 56.6384 30.5682 56.4957 28.5309C55.6568 25.4372 54.5093 18.2061 55.6479 18.2061C58.0424 18.2061 58.8987 21.5375 59.6307 22.6349C60.5029 23.9423 61.1537 25.2421 61.7414 26.6961C63.4771 30.9905 64.0723 35.2645 64.6026 39.8286C64.848 41.94 65 43.9897 65 46.1127C65 46.5554 65.0123 48.9576 64.6026 49.1559" stroke="#333333" stroke-width="3" stroke-linecap="round"/>
</svg>
