<svg width="59" height="59" viewBox="0 0 59 59" fill="none" xmlns="http://www.w3.org/2000/svg">
<path d="M2.31792 20.2188C3.9191 21.924 3.74855 23.5013 3.74855 25.6736C3.74855 28.6259 3.65119 31.7228 2.88311 34.591C2.72185 35.1932 2.73534 36.0727 2.38857 36.6002C2.16126 36.9461 2 37.3329 2 37.763C2 38.9306 2.47186 39.6069 2.86544 40.6956C3.69897 43.0012 4.36446 45.5924 6.21242 47.3816C6.82091 47.9707 7.45979 48.4331 8.35837 48.3819C8.69269 48.3628 9.16499 47.8815 9.31212 47.6124C9.71484 46.8759 10.3687 46.3163 10.8134 45.6117C12.2752 43.2959 12.0144 40.6733 12.0144 38.0623C12.0144 34.484 13.5618 31.3689 12.4621 27.9242C10.9754 23.2677 7.73395 8.25197 8.35837 13.0883C9.08518 18.7175 11.9243 24.1075 12.8092 29.7242C13.1678 31.9998 11.1269 34.5592 11.5376 36.8311C11.9639 39.1898 12.6593 41.5182 12.9329 43.9018C13.1614 45.8931 13.2861 47.7775 13.2861 49.7926C13.2861 50.6305 13.2861 51.4684 13.2861 52.3062C13.2861 52.7601 13.2986 52.8449 12.8092 52.8449" stroke="#333333" stroke-width="3" stroke-linecap="round"/>
<path d="M13.7168 15.75C13.8312 18.8502 16.0052 20.7689 18.5317 22.1851C19.013 22.4548 18.6879 24.4948 18.6553 24.921C18.4809 27.2004 18.3708 29.4617 19.0174 31.6839C20.2957 36.0775 21.7715 40.3913 23.1327 44.7566C23.6656 46.4657 23.9947 48.0372 23.9275 49.8266C23.8749 51.2254 23.2361 52.2773 22.6646 53.4945C22.0101 54.8884 20.7368 55.1531 19.3265 55.1531C17.5537 55.1531 17.8014 52.4432 17.4984 51.2373C17.0934 49.6254 17.6661 48.3111 17.4984 46.6875C17.3706 45.4496 16.9123 43.8323 16.9123 42.5625" stroke="#333333" stroke-width="3" stroke-linecap="round"/>
<path d="M12.6519 10.5938V11.2812" stroke="#333333" stroke-width="3" stroke-linecap="round"/>
<path d="M20.9159 16.2174C23.3154 13.0094 26.0763 10.0203 28.599 6.89811C29.1417 6.22642 31.7064 2.91812 29.9766 2.12731C29.4543 1.88852 28.5475 2.05891 27.9808 2.05891C27.2043 2.05891 26.3851 1.98944 25.6141 2.09311C24.5616 2.23463 23.6243 2.76734 22.5938 2.97374C22.0222 3.08826 21.4164 3.17891 20.8983 3.45253C19.8853 3.98748 18.5795 4.49335 18.0723 5.61563C17.565 6.73824 17.7271 8.26142 17.7368 9.44595C17.7488 10.9183 18.0179 12.4095 18.3726 13.8406C18.7557 15.3859 18.9847 16.874 20.3154 17.9103C21.9065 19.1493 23.8398 19.7644 24.0775 22.0655C24.3962 25.151 23.6584 27.4932 23.6584 30.5312C23.6584 33.3751 24.3685 35.6875 25.5169 38.4384C26.8539 41.1875 28.7233 42.0623 29.8795 44.218C30.6084 45.5772 31.0408 46.9625 30.8951 48.5015C30.7478 50.0571 30.2997 52.1264 29.3408 53.4262C28.8984 54.0257 27.9758 55.6785 28.7049 56.3844C28.9493 56.6209 29.5181 56.6538 29.8353 56.6922C31.166 56.8532 32.4252 57 33.774 57C35.8212 57 37.6819 56.0708 39.3552 54.9908C40.4244 54.3007 41.3956 53.4928 42.4991 52.8448C43.1701 52.4507 43.0258 52.1316 42.8523 51.4597" stroke="#333333" stroke-width="3" stroke-linecap="round"/>
<path d="M35.2225 4.52051C34.6487 4.68716 34.1925 5.79662 33.942 6.23902C33.2177 7.51764 32.4509 8.75185 31.6459 9.98384C30.2076 12.1848 28.1024 13.8241 26.3296 15.755C25.0873 17.108 27.8704 18.7942 28.7051 19.6024C30.5788 21.4164 31.6122 23.6185 31.5664 26.1686C31.5243 28.5101 30.1147 30.4559 29.7472 32.7434C29.4472 34.6105 29.7719 36.11 30.7597 37.7495C31.6096 39.1601 32.8967 39.9581 34.6653 40.1557C37.1424 40.4324 37.5373 41.1486 38.926 39.1245C41.7079 35.0698 42.3756 29.1922 42.3756 24.4758C42.3756 20.1389 41.8307 15.4468 40.7013 11.21C40.2421 9.48715 39.4188 8.82325 38.571 7.1557C37.8829 6.46481 37.4473 5.67861 36.6531 5.10189C36.2393 4.80146 35.8395 4.54047 36.3882 5.20449C37.6086 6.68141 38.7487 8.27346 39.8323 9.84704C42.4478 13.6453 43.8613 18.1729 43.9564 22.7316C44.0952 29.3827 43.6473 42.6869 43.6473 42.6869" stroke="#333333" stroke-width="3" stroke-linecap="round"/>
<path d="M43.6475 6.52148C44.1126 7.42212 44.6168 8.30434 45.0781 9.20613C45.8034 10.6241 46.0603 12.1213 46.5176 13.6264C47.0603 15.4129 47.8271 17.1508 48.2396 18.97C48.7934 21.4125 49.1912 23.8397 49.3347 26.3399C49.589 30.7721 49.7685 35.3072 49.2905 39.729C49.1477 41.05 48.9369 42.2339 48.4957 43.4823C48.2197 44.2635 47.7983 45.2122 47.6568 46.0216C47.3995 47.4934 48.1096 48.456 47.6479 49.8861C47.4888 50.379 47.1702 52.0146 47.6568 50.3735C48.8283 46.422 49.2008 42.8491 49.8999 38.7885C50.2994 36.4674 49.8147 34.2565 49.8999 31.9059C49.9682 30.0192 49.4812 26.9027 49.2363 25.0309C48.9713 23.0056 48.6384 21.5682 48.4957 19.5309C47.6568 16.4372 46.5093 9.20613 47.6479 9.20613C50.0424 9.20613 50.8987 12.5375 51.6307 13.6349C52.5029 14.9423 53.1537 16.2421 53.7414 17.6961C55.4771 21.9905 56.0723 26.2645 56.6026 30.8286C56.848 32.94 57 34.9897 57 37.1127C57 37.5554 57.0123 39.9576 56.6026 40.1559" stroke="#333333" stroke-width="3" stroke-linecap="round"/>
</svg>
